<?xml version="1.0" encoding="UTF-8" standalone="no"?>
<!DOCTYPE svg PUBLIC "-//W3C//DTD SVG 1.1//EN"
 "http://www.w3.org/Graphics/SVG/1.1/DTD/svg11.dtd">
<!-- Generated by graphviz version 2.38.0 (20140413.2041)
 -->
<!-- Title: dependencies Pages: 1 -->
<svg width="3527pt" height="284pt"
 viewBox="0.00 0.00 3527.00 284.00" xmlns="http://www.w3.org/2000/svg" xmlns:xlink="http://www.w3.org/1999/xlink">
<g id="graph0" class="graph" transform="scale(1 1) rotate(0) translate(4 280)">
<title>dependencies</title>
<polygon fill="white" stroke="none" points="-4,4 -4,-280 3523,-280 3523,4 -4,4"/>
<text text-anchor="start" x="1738.51" y="-42.4" font-family="sans-serif" font-weight="bold" font-size="14.00">Legend</text>
<polygon fill="#ffffb3" stroke="none" points="1525.5,-10 1525.5,-30 1545.5,-30 1545.5,-10 1525.5,-10"/>
<text text-anchor="start" x="1549.13" y="-15.4" font-family="sans-serif" font-size="14.00"> &#160;Declarations</text>
<polygon fill="#8dd3c7" stroke="none" points="1638.5,-10 1638.5,-30 1658.5,-30 1658.5,-10 1638.5,-10"/>
<text text-anchor="start" x="1662.23" y="-15.4" font-family="sans-serif" font-size="14.00"> &#160;Module</text>
<polygon fill="#80b1d3" stroke="none" points="1724.5,-10 1724.5,-30 1744.5,-30 1744.5,-10 1724.5,-10"/>
<text text-anchor="start" x="1748.28" y="-15.4" font-family="sans-serif" font-size="14.00"> &#160;Bootstrap</text>
<polygon fill="#fdb462" stroke="none" points="1821.5,-10 1821.5,-30 1841.5,-30 1841.5,-10 1821.5,-10"/>
<text text-anchor="start" x="1845.17" y="-15.4" font-family="sans-serif" font-size="14.00"> &#160;Providers</text>
<polygon fill="#fb8072" stroke="none" points="1917.5,-10 1917.5,-30 1937.5,-30 1937.5,-10 1917.5,-10"/>
<text text-anchor="start" x="1941.23" y="-15.4" font-family="sans-serif" font-size="14.00"> &#160;Exports</text>
<g id="clust1" class="cluster"><title>cluster_NgbRootModule</title>
<polygon fill="none" stroke="black" stroke-dasharray="1,5" points="8,-70 8,-268 3351,-268 3351,-70 8,-70"/>
</g>
<g id="clust3" class="cluster"><title>cluster_NgbRootModule_imports</title>
<polygon fill="none" stroke="black" points="16,-78 16,-130 3343,-130 3343,-78 16,-78"/>
</g>
<g id="clust4" class="cluster"><title>cluster_NgbRootModule_exports</title>
<polygon fill="none" stroke="black" points="2565,-208 2565,-260 2705,-260 2705,-208 2565,-208"/>
</g>
<g id="clust7" class="cluster"><title>cluster_NgbModule</title>
<polygon fill="none" stroke="black" stroke-dasharray="1,5" points="3359,-70 3359,-195 3511,-195 3511,-70 3359,-70"/>
</g>
<g id="clust9" class="cluster"><title>cluster_NgbModule_imports</title>
<polygon fill="none" stroke="black" points="3367,-78 3367,-130 3503,-130 3503,-78 3367,-78"/>
</g>
<!-- NgbAlertModule.forRoot() -->
<g id="node1" class="node"><title>NgbAlertModule.forRoot()</title>
<polygon fill="#8dd3c7" stroke="black" points="3335.29,-122 3332.29,-126 3311.29,-126 3308.29,-122 3166.71,-122 3166.71,-86 3335.29,-86 3335.29,-122"/>
<text text-anchor="middle" x="3251" y="-99.8" font-family="Times,serif" font-size="14.00">NgbAlertModule.forRoot()</text>
</g>
<!-- NgbRootModule -->
<g id="node17" class="node"><title>NgbRootModule</title>
<polygon fill="#8dd3c7" stroke="black" points="2053.38,-187 2050.38,-191 2029.38,-191 2026.38,-187 1942.62,-187 1942.62,-151 2053.38,-151 2053.38,-187"/>
<text text-anchor="middle" x="1998" y="-164.8" font-family="Times,serif" font-size="14.00">NgbRootModule</text>
</g>
<!-- NgbAlertModule.forRoot()&#45;&gt;NgbRootModule -->
<g id="edge1" class="edge"><title>NgbAlertModule.forRoot()&#45;&gt;NgbRootModule</title>
<path fill="none" stroke="black" d="M3251,-122.323C3251,-145.66 3251,-183 3251,-183 3251,-183 2063.46,-183 2063.46,-183"/>
<polygon fill="black" stroke="black" points="2063.46,-179.5 2053.46,-183 2063.46,-186.5 2063.46,-179.5"/>
</g>
<!-- NgbButtonsModule.forRoot() -->
<g id="node2" class="node"><title>NgbButtonsModule.forRoot()</title>
<polygon fill="#8dd3c7" stroke="black" points="3148.59,-122 3145.59,-126 3124.59,-126 3121.59,-122 2965.41,-122 2965.41,-86 3148.59,-86 3148.59,-122"/>
<text text-anchor="middle" x="3057" y="-99.8" font-family="Times,serif" font-size="14.00">NgbButtonsModule.forRoot()</text>
</g>
<!-- NgbButtonsModule.forRoot()&#45;&gt;NgbRootModule -->
<g id="edge2" class="edge"><title>NgbButtonsModule.forRoot()&#45;&gt;NgbRootModule</title>
<path fill="none" stroke="black" d="M3057,-122.155C3057,-144.352 3057,-179 3057,-179 3057,-179 2063.45,-179 2063.45,-179"/>
<polygon fill="black" stroke="black" points="2063.45,-175.5 2053.45,-179 2063.45,-182.5 2063.45,-175.5"/>
</g>
<!-- NgbCollapseModule.forRoot() -->
<g id="node3" class="node"><title>NgbCollapseModule.forRoot()</title>
<polygon fill="#8dd3c7" stroke="black" points="2947.52,-122 2944.52,-126 2923.52,-126 2920.52,-122 2758.48,-122 2758.48,-86 2947.52,-86 2947.52,-122"/>
<text text-anchor="middle" x="2853" y="-99.8" font-family="Times,serif" font-size="14.00">NgbCollapseModule.forRoot()</text>
</g>
<!-- NgbCollapseModule.forRoot()&#45;&gt;NgbRootModule -->
<g id="edge3" class="edge"><title>NgbCollapseModule.forRoot()&#45;&gt;NgbRootModule</title>
<path fill="none" stroke="black" d="M2853,-122.284C2853,-143.321 2853,-175 2853,-175 2853,-175 2063.44,-175 2063.44,-175"/>
<polygon fill="black" stroke="black" points="2063.44,-171.5 2053.44,-175 2063.44,-178.5 2063.44,-171.5"/>
</g>
<!-- NgbProgressbarModule.forRoot() -->
<g id="node4" class="node"><title>NgbProgressbarModule.forRoot()</title>
<polygon fill="#8dd3c7" stroke="black" points="2740.11,-122 2737.11,-126 2716.11,-126 2713.11,-122 2533.89,-122 2533.89,-86 2740.11,-86 2740.11,-122"/>
<text text-anchor="middle" x="2637" y="-99.8" font-family="Times,serif" font-size="14.00">NgbProgressbarModule.forRoot()</text>
</g>
<!-- NgbProgressbarModule.forRoot()&#45;&gt;NgbRootModule -->
<g id="edge4" class="edge"><title>NgbProgressbarModule.forRoot()&#45;&gt;NgbRootModule</title>
<path fill="none" stroke="black" d="M2547.01,-122.222C2547.01,-140.829 2547.01,-167 2547.01,-167 2547.01,-167 2063.41,-167 2063.41,-167"/>
<polygon fill="black" stroke="black" points="2063.41,-163.5 2053.41,-167 2063.41,-170.5 2063.41,-163.5"/>
</g>
<!-- NgbProgressbarModule.forRoot()&#45;&gt;NgbRootModule -->
<g id="edge14" class="edge"><title>NgbProgressbarModule.forRoot()&#45;&gt;NgbRootModule</title>
<path fill="none" stroke="black" d="M2560.08,-122.308C2560.08,-142.146 2560.08,-171 2560.08,-171 2560.08,-171 2063.43,-171 2063.43,-171"/>
<polygon fill="black" stroke="black" points="2063.43,-167.5 2053.43,-171 2063.43,-174.5 2063.43,-167.5"/>
</g>
<!-- NgbTooltipModule.forRoot() -->
<g id="node5" class="node"><title>NgbTooltipModule.forRoot()</title>
<polygon fill="#8dd3c7" stroke="black" points="2515.75,-122 2512.75,-126 2491.75,-126 2488.75,-122 2334.25,-122 2334.25,-86 2515.75,-86 2515.75,-122"/>
<text text-anchor="middle" x="2425" y="-99.8" font-family="Times,serif" font-size="14.00">NgbTooltipModule.forRoot()</text>
</g>
<!-- NgbTooltipModule.forRoot()&#45;&gt;NgbRootModule -->
<g id="edge5" class="edge"><title>NgbTooltipModule.forRoot()&#45;&gt;NgbRootModule</title>
<path fill="none" stroke="black" d="M2394.79,-122.009C2394.79,-138.049 2394.79,-159 2394.79,-159 2394.79,-159 2063.59,-159 2063.59,-159"/>
<polygon fill="black" stroke="black" points="2063.59,-155.5 2053.59,-159 2063.59,-162.5 2063.59,-155.5"/>
</g>
<!-- NgbTooltipModule.forRoot()&#45;&gt;NgbRootModule -->
<g id="edge18" class="edge"><title>NgbTooltipModule.forRoot()&#45;&gt;NgbRootModule</title>
<path fill="none" stroke="black" d="M2455.21,-122.023C2455.21,-139.373 2455.21,-163 2455.21,-163 2455.21,-163 2063.61,-163 2063.61,-163"/>
<polygon fill="black" stroke="black" points="2063.61,-159.5 2053.61,-163 2063.61,-166.5 2063.61,-159.5"/>
</g>
<!-- NgbTypeaheadModule.forRoot() -->
<g id="node6" class="node"><title>NgbTypeaheadModule.forRoot()</title>
<polygon fill="#8dd3c7" stroke="black" points="2316.94,-122 2313.94,-126 2292.94,-126 2289.94,-122 2115.06,-122 2115.06,-86 2316.94,-86 2316.94,-122"/>
<text text-anchor="middle" x="2216" y="-99.8" font-family="Times,serif" font-size="14.00">NgbTypeaheadModule.forRoot()</text>
</g>
<!-- NgbTypeaheadModule.forRoot()&#45;&gt;NgbRootModule -->
<g id="edge6" class="edge"><title>NgbTypeaheadModule.forRoot()&#45;&gt;NgbRootModule</title>
<path fill="none" stroke="black" d="M2216,-122.124C2216,-136.783 2216,-155 2216,-155 2216,-155 2063.57,-155 2063.57,-155"/>
<polygon fill="black" stroke="black" points="2063.57,-151.5 2053.57,-155 2063.57,-158.5 2063.57,-151.5"/>
</g>
<!-- NgbAccordionModule.forRoot() -->
<g id="node7" class="node"><title>NgbAccordionModule.forRoot()</title>
<polygon fill="#8dd3c7" stroke="black" points="2097.61,-122 2094.61,-126 2073.61,-126 2070.61,-122 1898.39,-122 1898.39,-86 2097.61,-86 2097.61,-122"/>
<text text-anchor="middle" x="1998" y="-99.8" font-family="Times,serif" font-size="14.00">NgbAccordionModule.forRoot()</text>
</g>
<!-- NgbAccordionModule.forRoot()&#45;&gt;NgbRootModule -->
<g id="edge7" class="edge"><title>NgbAccordionModule.forRoot()&#45;&gt;NgbRootModule</title>
<path fill="none" stroke="black" d="M1998,-122.106C1998,-122.106 1998,-140.991 1998,-140.991"/>
<polygon fill="black" stroke="black" points="1994.5,-140.991 1998,-150.991 2001.5,-140.991 1994.5,-140.991"/>
</g>
<!-- NgbCarouselModule.forRoot() -->
<g id="node8" class="node"><title>NgbCarouselModule.forRoot()</title>
<polygon fill="#8dd3c7" stroke="black" points="1880.79,-122 1877.79,-126 1856.79,-126 1853.79,-122 1691.21,-122 1691.21,-86 1880.79,-86 1880.79,-122"/>
<text text-anchor="middle" x="1786" y="-99.8" font-family="Times,serif" font-size="14.00">NgbCarouselModule.forRoot()</text>
</g>
<!-- NgbCarouselModule.forRoot()&#45;&gt;NgbRootModule -->
<g id="edge8" class="edge"><title>NgbCarouselModule.forRoot()&#45;&gt;NgbRootModule</title>
<path fill="none" stroke="black" d="M1786,-122.124C1786,-136.783 1786,-155 1786,-155 1786,-155 1932.58,-155 1932.58,-155"/>
<polygon fill="black" stroke="black" points="1932.58,-158.5 1942.58,-155 1932.58,-151.5 1932.58,-158.5"/>
</g>
<!-- NgbDatepickerModule.forRoot() -->
<g id="node9" class="node"><title>NgbDatepickerModule.forRoot()</title>
<polygon fill="#8dd3c7" stroke="black" points="1672.93,-122 1669.93,-126 1648.93,-126 1645.93,-122 1471.07,-122 1471.07,-86 1672.93,-86 1672.93,-122"/>
<text text-anchor="middle" x="1572" y="-99.8" font-family="Times,serif" font-size="14.00">NgbDatepickerModule.forRoot()</text>
</g>
<!-- NgbDatepickerModule.forRoot()&#45;&gt;NgbRootModule -->
<g id="edge9" class="edge"><title>NgbDatepickerModule.forRoot()&#45;&gt;NgbRootModule</title>
<path fill="none" stroke="black" d="M1572,-122.009C1572,-138.049 1572,-159 1572,-159 1572,-159 1932.31,-159 1932.31,-159"/>
<polygon fill="black" stroke="black" points="1932.31,-162.5 1942.31,-159 1932.31,-155.5 1932.31,-162.5"/>
</g>
<!-- NgbDropdownModule.forRoot() -->
<g id="node10" class="node"><title>NgbDropdownModule.forRoot()</title>
<polygon fill="#8dd3c7" stroke="black" points="1452.9,-122 1449.9,-126 1428.9,-126 1425.9,-122 1253.1,-122 1253.1,-86 1452.9,-86 1452.9,-122"/>
<text text-anchor="middle" x="1353" y="-99.8" font-family="Times,serif" font-size="14.00">NgbDropdownModule.forRoot()</text>
</g>
<!-- NgbDropdownModule.forRoot()&#45;&gt;NgbRootModule -->
<g id="edge10" class="edge"><title>NgbDropdownModule.forRoot()&#45;&gt;NgbRootModule</title>
<path fill="none" stroke="black" d="M1353,-122.034C1353,-139.06 1353,-162 1353,-162 1353,-162 1932.45,-162 1932.45,-162"/>
<polygon fill="black" stroke="black" points="1932.45,-165.5 1942.45,-162 1932.45,-158.5 1932.45,-165.5"/>
</g>
<!-- NgbModalModule.forRoot() -->
<g id="node11" class="node"><title>NgbModalModule.forRoot()</title>
<polygon fill="#8dd3c7" stroke="black" points="1235.08,-122 1232.08,-126 1211.08,-126 1208.08,-122 1058.92,-122 1058.92,-86 1235.08,-86 1235.08,-122"/>
<text text-anchor="middle" x="1147" y="-99.8" font-family="Times,serif" font-size="14.00">NgbModalModule.forRoot()</text>
</g>
<!-- NgbModalModule.forRoot()&#45;&gt;NgbRootModule -->
<g id="edge11" class="edge"><title>NgbModalModule.forRoot()&#45;&gt;NgbRootModule</title>
<path fill="none" stroke="black" d="M1147,-122.267C1147,-140.555 1147,-166 1147,-166 1147,-166 1932.49,-166 1932.49,-166"/>
<polygon fill="black" stroke="black" points="1932.49,-169.5 1942.49,-166 1932.49,-162.5 1932.49,-169.5"/>
</g>
<!-- NgbPaginationModule.forRoot() -->
<g id="node12" class="node"><title>NgbPaginationModule.forRoot()</title>
<polygon fill="#8dd3c7" stroke="black" points="1040.91,-122 1037.91,-126 1016.91,-126 1013.91,-122 841.09,-122 841.09,-86 1040.91,-86 1040.91,-122"/>
<text text-anchor="middle" x="941" y="-99.8" font-family="Times,serif" font-size="14.00">NgbPaginationModule.forRoot()</text>
</g>
<!-- NgbPaginationModule.forRoot()&#45;&gt;NgbRootModule -->
<g id="edge12" class="edge"><title>NgbPaginationModule.forRoot()&#45;&gt;NgbRootModule</title>
<path fill="none" stroke="black" d="M941,-122.106C941,-141.339 941,-169 941,-169 941,-169 1932.29,-169 1932.29,-169"/>
<polygon fill="black" stroke="black" points="1932.29,-172.5 1942.29,-169 1932.29,-165.5 1932.29,-172.5"/>
</g>
<!-- NgbPopoverModule.forRoot() -->
<g id="node13" class="node"><title>NgbPopoverModule.forRoot()</title>
<polygon fill="#8dd3c7" stroke="black" points="823.184,-122 820.184,-126 799.184,-126 796.184,-122 636.816,-122 636.816,-86 823.184,-86 823.184,-122"/>
<text text-anchor="middle" x="730" y="-99.8" font-family="Times,serif" font-size="14.00">NgbPopoverModule.forRoot()</text>
</g>
<!-- NgbPopoverModule.forRoot()&#45;&gt;NgbRootModule -->
<g id="edge13" class="edge"><title>NgbPopoverModule.forRoot()&#45;&gt;NgbRootModule</title>
<path fill="none" stroke="black" d="M730,-122.129C730,-142.572 730,-173 730,-173 730,-173 1932.29,-173 1932.29,-173"/>
<polygon fill="black" stroke="black" points="1932.29,-176.5 1942.29,-173 1932.29,-169.5 1932.29,-176.5"/>
</g>
<!-- NgbRatingModule.forRoot() -->
<g id="node14" class="node"><title>NgbRatingModule.forRoot()</title>
<polygon fill="#8dd3c7" stroke="black" points="618.859,-122 615.859,-126 594.859,-126 591.859,-122 441.141,-122 441.141,-86 618.859,-86 618.859,-122"/>
<text text-anchor="middle" x="530" y="-99.8" font-family="Times,serif" font-size="14.00">NgbRatingModule.forRoot()</text>
</g>
<!-- NgbRatingModule.forRoot()&#45;&gt;NgbRootModule -->
<g id="edge15" class="edge"><title>NgbRatingModule.forRoot()&#45;&gt;NgbRootModule</title>
<path fill="none" stroke="black" d="M530,-122.045C530,-143.662 530,-177 530,-177 530,-177 1932.25,-177 1932.25,-177"/>
<polygon fill="black" stroke="black" points="1932.25,-180.5 1942.25,-177 1932.25,-173.5 1932.25,-180.5"/>
</g>
<!-- NgbTabsetModule.forRoot() -->
<g id="node15" class="node"><title>NgbTabsetModule.forRoot()</title>
<polygon fill="#8dd3c7" stroke="black" points="423.843,-122 420.843,-126 399.843,-126 396.843,-122 246.157,-122 246.157,-86 423.843,-86 423.843,-122"/>
<text text-anchor="middle" x="335" y="-99.8" font-family="Times,serif" font-size="14.00">NgbTabsetModule.forRoot()</text>
</g>
<!-- NgbTabsetModule.forRoot()&#45;&gt;NgbRootModule -->
<g id="edge16" class="edge"><title>NgbTabsetModule.forRoot()&#45;&gt;NgbRootModule</title>
<path fill="none" stroke="black" d="M335,-122.011C335,-144.485 335,-180 335,-180 335,-180 1932.19,-180 1932.19,-180"/>
<polygon fill="black" stroke="black" points="1932.19,-183.5 1942.19,-180 1932.19,-176.5 1932.19,-183.5"/>
</g>
<!-- NgbTimepickerModule.forRoot() -->
<g id="node16" class="node"><title>NgbTimepickerModule.forRoot()</title>
<polygon fill="#8dd3c7" stroke="black" points="228.055,-122 225.055,-126 204.055,-126 201.055,-122 23.9447,-122 23.9447,-86 228.055,-86 228.055,-122"/>
<text text-anchor="middle" x="126" y="-99.8" font-family="Times,serif" font-size="14.00">NgbTimepickerModule.forRoot()</text>
</g>
<!-- NgbTimepickerModule.forRoot()&#45;&gt;NgbRootModule -->
<g id="edge17" class="edge"><title>NgbTimepickerModule.forRoot()&#45;&gt;NgbRootModule</title>
<path fill="none" stroke="black" d="M126,-122.153C126,-145.757 126,-184 126,-184 126,-184 1932.48,-184 1932.48,-184"/>
<polygon fill="black" stroke="black" points="1932.48,-187.5 1942.48,-184 1932.48,-180.5 1932.48,-187.5"/>
</g>
<!-- NGB_MODULES  -->
<g id="node18" class="node"><title>NGB_MODULES </title>
<polygon fill="#fb8072" stroke="black" points="2696.7,-252 2573.3,-252 2573.3,-216 2696.7,-216 2696.7,-252"/>
<text text-anchor="middle" x="2635" y="-229.8" font-family="Times,serif" font-size="14.00">NGB_MODULES </text>
</g>
<!-- NgbRootModule&#45;&gt;NGB_MODULES  -->
<g id="edge19" class="edge"><title>NgbRootModule&#45;&gt;NGB_MODULES </title>
<path fill="none" stroke="black" stroke-dasharray="5,2" d="M1998,-187.106C1998,-206.339 1998,-234 1998,-234 1998,-234 2563.05,-234 2563.05,-234"/>
<polygon fill="black" stroke="black" points="2563.05,-237.5 2573.05,-234 2563.05,-230.5 2563.05,-237.5"/>
</g>
<!-- NGB_MODULES -->
<g id="node19" class="node"><title>NGB_MODULES</title>
<polygon fill="#8dd3c7" stroke="black" points="3495.2,-122 3492.2,-126 3471.2,-126 3468.2,-122 3374.8,-122 3374.8,-86 3495.2,-86 3495.2,-122"/>
<text text-anchor="middle" x="3435" y="-99.8" font-family="Times,serif" font-size="14.00">NGB_MODULES</text>
</g>
<!-- NgbModule -->
<g id="node20" class="node"><title>NgbModule</title>
<polygon fill="#8dd3c7" stroke="black" points="3463.66,-187 3460.66,-191 3439.66,-191 3436.66,-187 3380.34,-187 3380.34,-151 3463.66,-151 3463.66,-187"/>
<text text-anchor="middle" x="3422" y="-164.8" font-family="Times,serif" font-size="14.00">NgbModule</text>
</g>
<!-- NGB_MODULES&#45;&gt;NgbModule -->
<g id="edge20" class="edge"><title>NGB_MODULES&#45;&gt;NgbModule</title>
<path fill="none" stroke="black" d="M3422,-122.106C3422,-122.106 3422,-140.991 3422,-140.991"/>
<polygon fill="black" stroke="black" points="3418.5,-140.991 3422,-150.991 3425.5,-140.991 3418.5,-140.991"/>
</g>
<!-- NgbModule&#45;&gt;NGB_MODULES  -->
<g id="edge21" class="edge"><title>NgbModule&#45;&gt;NGB_MODULES </title>
<path fill="none" stroke="black" stroke-dasharray="5,2" d="M3422,-187.106C3422,-206.339 3422,-234 3422,-234 3422,-234 2706.75,-234 2706.75,-234"/>
<polygon fill="black" stroke="black" points="2706.75,-230.5 2696.75,-234 2706.75,-237.5 2706.75,-230.5"/>
</g>
</g>
</svg>
